<svg xmlns="http://www.w3.org/2000/svg" width="698.548" height="346.145" viewBox="0 0 698.548 346.145"><g transform="translate(-6.886 -9)"><g transform="translate(21.908 168.855)"><rect width="468.757" height="54.854" fill="none" stroke="#000" stroke-width="2"/><text transform="translate(169.187 35.221)" font-size="21.648" font-family="Helvetica"><tspan x="0" y="0">multiplyByTen</tspan></text></g><g transform="translate(21.908 249.101)"><g transform="translate(0 6.772)"><path d="M.342,8h468.23" fill="none" stroke="#000" stroke-linecap="square" stroke-width="2" fill-rule="evenodd"/><path d="M451.992.339l16.424,8.127" fill="none" stroke="#000" stroke-linecap="square" stroke-width="2" fill-rule="evenodd"/><path d="M451.992-8.465l16.424-8.127" transform="translate(0 25.057)" fill="none" stroke="#000" stroke-linecap="square" stroke-width="2" fill-rule="evenodd"/></g><g transform="translate(273.727 4.74)"><path d="M.614-.608,21.591-21.367" transform="translate(0 21.671)" fill="none" stroke="#000" stroke-linecap="square" stroke-width="2" fill-rule="evenodd"/><path d="M.614.608,21.591,21.367" transform="translate(21.898 21.671) rotate(180)" fill="none" stroke="#000" stroke-linecap="square" stroke-width="2" fill-rule="evenodd"/></g><g transform="translate(55.43)"><ellipse cx="15.397" cy="15.237" rx="15.397" ry="15.237" transform="translate(0 0)" fill="#ff6946" stroke="#000" stroke-width="2"/><text transform="translate(6.986 20.74)" font-size="16.236" font-family="Helvetica"><tspan x="0" y="0">40</tspan></text></g><g transform="translate(128.652)"><ellipse cx="15.397" cy="15.237" rx="15.397" ry="15.237" transform="translate(0 0)" fill="#ffcb46" stroke="#000" stroke-width="2"/><text transform="translate(6.986 20.74)" font-size="16.236" font-family="Helvetica"><tspan x="0" y="0">60</tspan></text></g></g><g transform="translate(21.908 112.355)"><g transform="translate(0 6.772)"><path d="M.342,8h468.23" fill="none" stroke="#000" stroke-linecap="square" stroke-width="2" fill-rule="evenodd"/><path d="M451.992.339l16.424,8.127" fill="none" stroke="#000" stroke-linecap="square" stroke-width="2" fill-rule="evenodd"/><path d="M451.992-8.465l16.424-8.127" transform="translate(0 25.057)" fill="none" stroke="#000" stroke-linecap="square" stroke-width="2" fill-rule="evenodd"/></g><path d="M427-.339v-29.8" transform="translate(0 30.474)" fill="none" stroke="#000" stroke-linecap="square" stroke-width="2" fill-rule="evenodd"/><g transform="translate(55.43)"><ellipse cx="15.397" cy="15.237" rx="15.397" ry="15.237" transform="translate(0 0)" fill="#ff6946" stroke="#000" stroke-width="2"/><text transform="translate(11.02 20.063)" font-size="16.236" font-family="Helvetica"><tspan x="0" y="0">4</tspan></text></g><g transform="translate(128.652)"><ellipse cx="15.397" cy="15.237" rx="15.397" ry="15.237" transform="translate(0 0)" fill="#ffcb46" stroke="#000" stroke-width="2"/><text transform="translate(11.02 20.063)" font-size="16.236" font-family="Helvetica"><tspan x="0" y="0">6</tspan></text></g><g transform="translate(269.621)"><ellipse cx="15.397" cy="15.237" rx="15.397" ry="15.237" transform="translate(0 0)" fill="#3ea1cb" stroke="#000" stroke-width="2"/><text transform="translate(10.899 20.063)" font-size="16.236" font-family="Helvetica"><tspan x="0" y="0">a</tspan></text></g><g transform="translate(342.843)"><ellipse cx="15.397" cy="15.237" rx="15.397" ry="15.237" transform="translate(0 0)" fill="#82d736" stroke="#000" stroke-width="2"/><text transform="translate(11.363 20.74)" font-size="16.236" font-family="Helvetica"><tspan x="0" y="0">8</tspan></text></g></g><g transform="translate(8 10)"><path d="M28,18.014C4.581,34.149-12.215,60.073,11.4,102.132" fill="none" stroke="#b7178c" stroke-linecap="square" stroke-width="2" fill-rule="evenodd"/><path d="M11.4,102.132,8.731,91.247,3.5,94.184Z" fill="none" stroke="#b7178c" stroke-linecap="square" stroke-width="2" fill-rule="evenodd"/><text transform="translate(95.815 13)" fill="#b7178c" font-size="13.087" font-family="PingFangSC-Regular, PingFang SC"><tspan x="-58.891" y="0">来自输入流的时间线</tspan><tspan y="0" font-family="Helvetica"></tspan><tspan x="-39.261" y="17">（从左到右）</tspan></text></g><g transform="translate(112.717 10)"><text transform="translate(94.362 27)" fill="#b7178c" font-size="13.087" font-family="PingFangSC-Regular, PingFang SC"><tspan x="0" y="0">此</tspan><tspan y="0" xml:space="preserve" font-family="Helvetica"> Observable </tspan><tspan y="0">发出的各个值</tspan></text><path d="M128.851,41.351.409,98.67" fill="none" stroke="#b7178c" stroke-linecap="square" stroke-width="2" fill-rule="evenodd"/><path d="M.409,98.67l11.085-1.662L9.049,91.529Z" fill="none" stroke="#b7178c" stroke-linecap="square" stroke-width="2" fill-rule="evenodd"/><path d="M147.667,41.351,67.493,97.032" fill="none" stroke="#b7178c" stroke-linecap="square" stroke-width="2" fill-rule="evenodd"/><path d="M67.493,97.032l10.582-3.7-3.423-4.928Z" fill="none" stroke="#b7178c" stroke-linecap="square" stroke-width="2" fill-rule="evenodd"/><path d="M186.936,38.076l6.545,58.138" fill="none" stroke="#b7178c" stroke-linecap="square" stroke-width="2" fill-rule="evenodd"/><path d="M193.481,96.214l1.773-11.068-5.962.671Z" fill="none" stroke="#b7178c" stroke-linecap="square" stroke-width="2" fill-rule="evenodd"/><path d="M204.934,36.438l54.813,60.594" fill="none" stroke="#b7178c" stroke-linecap="square" stroke-width="2" fill-rule="evenodd"/><path d="M259.747,97.032l-5.02-10.022-4.45,4.025Z" fill="none" stroke="#b7178c" stroke-linecap="square" stroke-width="2" fill-rule="evenodd"/></g><g transform="translate(445.684 10)"><text transform="translate(22.75 13)" fill="#b7178c" font-size="13.087" font-family="PingFangSC-Regular, PingFang SC"><tspan x="0" y="0">这个竖线表示「完成（</tspan><tspan y="0" font-family="Helvetica">complete</tspan><tspan y="0">）」通知</tspan><tspan y="0" font-family="Helvetica"></tspan><tspan x="0" y="17">表示此</tspan><tspan y="17" xml:space="preserve" font-family="Helvetica"> Observable </tspan><tspan y="17">已成功结束</tspan></text><path d="M13.938,15.328C-.041,25.019-2.5,51.865,2.863,88.025" fill="none" stroke="#b7178c" stroke-linecap="square" stroke-width="2" fill-rule="evenodd"/><path d="M2.863,88.025,4.246,76.9l-5.935.88Z" fill="none" stroke="#b7178c" stroke-linecap="square" stroke-width="2" fill-rule="evenodd"/></g><g transform="translate(495.588 135.282)"><text transform="translate(8.024 44.116)" fill="#b7178c" font-size="13.087" font-family="PingFangSC-Regular, PingFang SC"><tspan x="0" y="0">这个方框表示操作符，</tspan><tspan y="0" font-family="Helvetica"></tspan><tspan x="0" y="17">它接受上方的输入</tspan><tspan y="17" xml:space="preserve" font-family="Helvetica"> Observable</tspan><tspan y="17">，</tspan><tspan y="17" font-family="Helvetica"></tspan><tspan x="0" y="34">以生成输出下方的</tspan><tspan y="34" xml:space="preserve" font-family="Helvetica"> Observable</tspan><tspan x="0" y="51">方框中的文本表示转换的类型</tspan></text><path d="M73.5,23.294c0-19-45.95-41.047-73.452,0" fill="none" stroke="#b7178c" stroke-linecap="square" stroke-width="2" fill-rule="evenodd"/><path d="M.045,23.294l8.5-7.3-4.985-3.34Z" fill="none" stroke="#b7178c" stroke-linecap="square" stroke-width="2" fill-rule="evenodd"/></g><g transform="translate(16.181 281.036)"><text transform="translate(26.179 50.667)" fill="#b7178c" font-size="13.087" font-family="PingFangSC-Regular, PingFang SC"><tspan x="0" y="0">此</tspan><tspan y="0" xml:space="preserve" font-family="Helvetica"> Observable </tspan><tspan y="0">来自</tspan><tspan y="0" font-family="Helvetica"></tspan><tspan x="0" y="17">操作符调用的结果</tspan></text><path d="M17.523,54.8c-11.71-4.565-29-26.631-5.661-54.392" fill="none" stroke="#b7178c" stroke-linecap="square" stroke-width="2" fill-rule="evenodd"/><path d="M11.862.409,2.616,6.746l4.593,3.861Z" fill="none" stroke="#b7178c" stroke-linecap="square" stroke-width="2" fill-rule="evenodd"/></g><g transform="translate(250.976 280.217)"><text transform="translate(21.271 53.928)" fill="#b7178c" font-size="13.087" font-family="PingFangSC-Regular, PingFang SC"><tspan x="0" y="0">这个</tspan><tspan y="0" xml:space="preserve" font-family="Helvetica"> X </tspan><tspan y="0">表示输出流上的错误，表示非正常终止</tspan><tspan y="0" font-family="Helvetica"></tspan><tspan x="0" y="17">此后，无论是值还是竖线都不会再发出</tspan></text><path d="M11.481,57.395C-6.706,51.5-3.325,12.118,25.77.409" fill="none" stroke="#b7178c" stroke-linecap="square" stroke-width="2" fill-rule="evenodd"/><path d="M25.77.409,14.631,1.658l2.24,5.566Z" fill="none" stroke="#b7178c" stroke-linecap="square" stroke-width="2" fill-rule="evenodd"/></g></g></svg>